<svg version="1.2" xmlns="http://www.w3.org/2000/svg" viewBox="0 0 1595 1595" width="1595" height="1595">
	<title>seeklogo-svg</title>
	<style>
		.s0 { fill: #0d3880 } 
	</style>
	<path id="Layer" fill-rule="evenodd" class="s0" d="m797.5 1594.9c-440.8 0-797.2-356.3-797.2-797.3 0-440.9 356.4-797.3 797.2-797.3 440.9 0 797.2 356.4 797.2 797.3 0 441-356.3 797.3-797.2 797.3zm-619.2-620.3c0-7-5.6-12.6-12.4-12.6-6.9 0-12.5 5.7-12.5 12.6 0 6.8 5.6 12.3 12.5 12.3 6.9 0 12.4-5.5 12.4-12.3zm0-167.6c0-6.9-5.6-12.5-12.4-12.5-6.9 0-12.5 5.6-12.5 12.5 0 6.9 5.6 12.5 12.5 12.5 6.9 0 12.4-5.6 12.4-12.5zm0-167.5c0-6.9-5.6-12.5-12.4-12.5-6.9 0-12.5 5.6-12.5 12.5 0 6.9 5.6 12.5 12.5 12.5 6.9 0 12.4-5.6 12.4-12.5zm92.2 335.1c0-10.4-8.4-18.8-18.7-18.8-10.3 0-18.7 8.4-18.7 18.8 0 10.3 8.4 18.7 18.7 18.7 10.4 0 18.7-8.4 18.7-18.7zm0-167.6c0-10.3-8.4-18.7-18.7-18.7-10.3 0-18.7 8.4-18.7 18.7 0 10.3 8.4 18.7 18.7 18.7 10.4 0 18.7-8.4 18.7-18.7zm0-167.5c0-10.4-8.4-18.7-18.7-18.7-10.3 0-18.7 8.3-18.7 18.7 0 10.3 8.4 18.7 18.7 18.7 10.4 0 18.7-8.4 18.7-18.7zm106.8 335c0-13.8-11.1-24.9-24.9-24.9-13.8 0-25 11.1-25 24.9 0 13.9 11.2 25 25 25 13.8 0 24.9-11.1 24.9-25zm0-167.5c0-13.8-11.1-24.9-24.9-24.9-13.8 0-25 11.1-25 24.9 0 13.7 11.2 24.9 25 24.9 13.8 0 24.9-11.2 24.9-24.9zm0-167.5c0-13.8-11.1-24.9-24.9-24.9-13.8 0-25 11.1-25 24.9 0 13.7 11.2 24.9 25 24.9 13.8 0 24.9-11.2 24.9-24.9zm112 335c0-17.2-13.9-31.1-31.1-31.1-17.2 0-31.1 13.9-31.1 31.1 0 17.2 13.9 31.2 31.1 31.2 17.2 0 31.1-14 31.1-31.2zm0-167.5c0-17.2-13.9-31.1-31.1-31.1-17.2 0-31.1 13.9-31.1 31.1 0 17.3 13.9 31.2 31.1 31.2 17.2 0 31.1-13.9 31.1-31.2zm0-167.5c0-17.2-13.9-31.2-31.1-31.2-17.2 0-31.1 14-31.1 31.2 0 17.2 13.9 31.2 31.1 31.2 17.2 0 31.1-14 31.1-31.2zm130.2 335.1c0-20.7-16.7-37.4-37.4-37.4-20.6 0-37.3 16.7-37.3 37.4 0 20.6 16.7 37.3 37.3 37.3 20.7 0 37.4-16.7 37.4-37.3zm0-167.6c0-20.6-16.7-37.3-37.4-37.3-20.6 0-37.3 16.7-37.3 37.3 0 20.7 16.7 37.4 37.3 37.4 20.7 0 37.4-16.7 37.4-37.4zm0-167.5c0-20.7-16.7-37.4-37.4-37.4-20.6 0-37.3 16.7-37.3 37.4 0 20.7 16.7 37.4 37.3 37.4 20.7 0 37.4-16.7 37.4-37.4zm136 335c0-24.1-19.5-43.6-43.6-43.6-24.1 0-43.6 19.5-43.6 43.6 0 24.1 19.5 43.6 43.6 43.6 24.1 0 43.6-19.5 43.6-43.6zm0-167.5c0-24.1-19.5-43.6-43.6-43.6-24.1 0-43.6 19.5-43.6 43.6 0 24.1 19.5 43.6 43.6 43.6 24.1 0 43.6-19.5 43.6-43.6zm0-167.5c0-24.1-19.5-43.6-43.6-43.6-24.1 0-43.6 19.5-43.6 43.6 0 24.1 19.5 43.6 43.6 43.6 24.1 0 43.6-19.5 43.6-43.6zm160.5 670.2c0-27.6-22.3-49.8-49.8-49.8-27.6 0-49.8 22.2-49.8 49.8 0 27.5 22.2 49.8 49.8 49.8 27.5 0 49.8-22.3 49.8-49.8zm0-167.6c0-27.6-22.3-49.9-49.8-49.9-27.6 0-49.8 22.3-49.8 49.9 0 27.5 22.2 49.8 49.8 49.8 27.5 0 49.8-22.3 49.8-49.8zm0-167.6c0-27.5-22.3-49.8-49.8-49.8-27.6 0-49.8 22.3-49.8 49.8 0 27.6 22.2 49.9 49.8 49.9 27.5 0 49.8-22.3 49.8-49.9zm0-167.5c0-27.5-22.3-49.8-49.8-49.8-27.6 0-49.8 22.3-49.8 49.8 0 27.6 22.2 49.9 49.8 49.9 27.5 0 49.8-22.3 49.8-49.9zm0-167.5c0-27.5-22.3-49.8-49.8-49.8-27.6 0-49.8 22.3-49.8 49.8 0 27.6 22.2 49.8 49.8 49.8 27.5 0 49.8-22.2 49.8-49.8zm0-167.5c0-27.6-22.3-49.8-49.8-49.8-27.6 0-49.8 22.2-49.8 49.8 0 27.5 22.2 49.8 49.8 49.8 27.5 0 49.8-22.3 49.8-49.8zm0-167.6c0-27.5-22.3-49.8-49.8-49.8-27.6 0-49.8 22.3-49.8 49.8 0 27.6 22.2 49.8 49.8 49.8 27.5 0 49.8-22.2 49.8-49.8zm165.3 837.7c0-30.4-24.6-55-55-55-30.4 0-54.9 24.6-54.9 55 0 30.4 24.5 55 54.9 55 30.4 0 55-24.6 55-55zm0-167.6c0-30.3-24.6-54.9-55-54.9-30.4 0-54.9 24.6-54.9 54.9 0 30.4 24.5 55 54.9 55 30.4 0 55-24.6 55-55zm0-167.4c0-30.4-24.6-55-55-55-30.4 0-54.9 24.6-54.9 55 0 30.3 24.5 54.9 54.9 54.9 30.4 0 55-24.6 55-54.9zm0-167.6c0-30.4-24.6-54.9-55-54.9-30.4 0-54.9 24.5-54.9 54.9 0 30.4 24.5 54.9 54.9 54.9 30.4 0 55-24.5 55-54.9zm0-167.6c0-30.4-24.6-54.9-55-54.9-30.4 0-54.9 24.5-54.9 54.9 0 30.4 24.5 55 54.9 55 30.4 0 55-24.6 55-55zm178.5 503.1c0-34.1-27.6-61.7-61.7-61.7-34.1 0-61.7 27.6-61.7 61.7 0 34.2 27.6 61.8 61.7 61.8 34.1 0 61.7-27.6 61.7-61.8zm0-167.5c0-34.2-27.6-61.7-61.7-61.7-34.1 0-61.7 27.5-61.7 61.7 0 34.1 27.6 61.7 61.7 61.7 34.1 0 61.7-27.6 61.7-61.7zm0-167.5c0-34.2-27.6-61.7-61.7-61.7-34.1 0-61.7 27.5-61.7 61.7 0 34.1 27.6 61.7 61.7 61.7 34.1 0 61.7-27.6 61.7-61.7zm181 168.6c0-37.4-30.2-67.6-67.6-67.6-37.4 0-67.6 30.2-67.6 67.6 0 37.4 30.2 67.6 67.6 67.6 37.4 0 67.6-30.2 67.6-67.6z"/>
</svg>